<?xml version="1.0" encoding="utf-8"?>
<!-- Generator: Adobe Illustrator 18.1.0, SVG Export Plug-In . SVG Version: 6.00 Build 0)  -->
<svg version="1.1" id="Capa_1" xmlns="http://www.w3.org/2000/svg" xmlns:xlink="http://www.w3.org/1999/xlink" x="0px" y="0px"
	 viewBox="-100 141 526.4 512" enable-background="new -100 141 526.4 512" xml:space="preserve">
<path fill="#9C27B0" d="M5.9,653c-3.1,0-6.3-0.8-9.1-2.4c-5.7-3.2-9.2-9.3-9.2-15.9V159.3c0-6.6,3.5-12.6,9.2-15.9
	c5.7-3.2,12.7-3.2,18.4,0.1l402.3,237.7c5.6,3.3,9,9.3,9,15.8c0,6.5-3.4,12.4-9,15.8L15.2,650.5C12.3,652.1,9.1,653,5.9,653L5.9,653
	z M24.1,191.3v411.4L372.2,397L24.1,191.3z"/>
</svg>
