<svg width="69" height="20" viewBox="0 0 69 20" fill="none" xmlns="http://www.w3.org/2000/svg">
<g clip-path="url(#clip0)">
<path d="M43.1541 0.327928L39.9651 13.7149C39.7211 14.8059 39.6411 15.7569 39.6411 15.7569H39.5841C39.5551 15.7569 39.5271 14.8309 39.2291 13.7149L35.7951 0.327928H32.7421L29.2541 13.7149C28.9531 14.8289 28.9271 15.7569 28.8991 15.7569H28.8451C28.8451 15.7569 28.7591 14.8039 28.5191 13.7149L26.2351 3.69093L24.5181 10.9999L26.6911 19.6799H30.7531L33.7241 8.23293C34.0501 6.97893 34.2161 5.69893 34.2161 5.69893H34.2681C34.2681 5.69893 34.4311 6.97893 34.7601 8.23293L37.7351 19.6799H41.7951L46.7871 0.325928L43.1541 0.327928Z" fill="#808285"/>
<path d="M64.9909 0.327881L61.7999 13.7149C61.5569 14.8059 61.4749 15.7569 61.4749 15.7569H61.4179C61.3929 15.7569 61.3659 14.8309 61.0659 13.7149L57.6299 0.327881H54.5799L51.0899 13.7149C50.7879 14.8289 50.7639 15.7569 50.7359 15.7569H50.6799C50.6799 15.7569 50.5979 14.8039 50.3539 13.7149L48.0569 3.64588L46.3389 10.9559L48.5269 19.6829H52.5879L55.5589 8.23588C55.8839 6.98088 56.0509 5.70088 56.0509 5.70088H56.1059C56.1059 5.70088 56.2699 6.98088 56.5959 8.23588L59.5689 19.6829H63.6299L68.6219 0.328881H64.9909V0.327881Z" fill="#808285"/>
<path d="M17.393 13.713C17.692 14.829 17.718 15.755 17.745 15.755H17.8C17.8 15.755 17.884 14.799 18.127 13.713L21.315 0.323975H24.941L19.951 19.678H15.891L12.921 8.22997C12.595 6.97597 12.428 5.69597 12.428 5.69597H12.374C12.374 5.69597 12.212 6.97597 11.883 8.22997L8.911 19.678H4.85L0 0.327975H3.625L6.679 13.715C6.925 14.806 7.006 15.757 7.006 15.757H7.061C7.09 15.757 7.113 14.831 7.416 13.715L10.905 0.327975H13.954L17.393 13.713Z" fill="white"/>
</g>
<defs>
<clipPath id="clip0">
<rect width="68.621" height="19.354" fill="white"/>
</clipPath>
</defs>
</svg>
